<svg width="462" height="462" viewBox="0 0 462 462" fill="none" xmlns="http://www.w3.org/2000/svg">
<path d="M231 0L431.052 115.5V346.5L231 462L30.9481 346.5V115.5L231 0Z" fill="#212121"/>
<path d="M168.823 327.759C160.627 322.743 151.788 319.372 142.437 317.33C141.76 317.181 141.083 317.04 140.439 316.901C140.408 316.781 140.387 316.74 140.387 316.695C140.382 316.604 140.385 316.512 140.39 316.421C140.54 312.692 139.878 309.107 138.505 305.65C137.916 304.167 137.044 302.874 135.951 301.728C134.394 300.098 132.567 298.85 130.563 297.855C129.979 297.565 129.374 297.312 128.743 297.027C128.676 297.26 128.606 297.43 128.583 297.604C128.141 300.675 128.058 303.746 128.699 306.801C129.152 308.953 129.93 310.974 131.473 312.58C132.383 313.528 133.407 314.364 134.379 315.249C134.513 315.371 134.65 315.492 134.787 315.612C131.455 314.821 128.275 313.698 125.165 312.327C125.948 309.115 126.096 305.947 125.708 302.738C125.395 300.145 124.607 297.764 122.993 295.685C121.512 293.776 119.731 292.212 117.706 290.919C117.598 290.852 117.471 290.81 117.352 290.755C117.301 290.844 117.257 290.899 117.236 290.961C116.184 293.956 115.571 297.032 115.693 300.221C115.783 302.639 116.375 304.921 117.851 306.885C118.521 307.775 119.253 308.616 119.956 309.478C120.057 309.603 120.15 309.734 120.297 309.93C118.741 309.402 111.771 305.229 111.143 304.464C112.308 301.772 112.932 298.942 113.159 296.001C113.397 292.928 112.888 290.048 111.267 287.4C110.251 285.737 109.038 284.24 107.616 282.919C107.471 282.786 107.314 282.668 107.135 282.522C107.047 282.648 106.975 282.734 106.921 282.83C105.636 285.131 104.666 287.559 104.142 290.152C103.738 292.139 103.635 294.14 104.131 296.129C104.516 297.673 105.266 299.057 106.078 300.407C106.225 300.649 106.365 300.895 106.556 301.216C105.308 300.553 99.3072 295.435 98.6249 294.479C98.6792 294.385 98.7334 294.286 98.7955 294.189C100.422 291.651 101.528 288.896 102.151 285.94C102.508 284.256 102.702 282.564 102.407 280.843C101.882 277.772 100.486 275.117 98.6068 272.691C98.5706 272.647 98.5033 272.628 98.4491 272.594C98.3818 272.649 98.3224 272.686 98.281 272.735C96.3007 275.179 94.703 277.838 93.8059 280.883C93.3173 282.541 93.0975 284.225 93.3819 285.954C93.6094 287.338 94.0567 288.649 94.5737 289.941C94.6487 290.132 94.7133 290.328 94.7832 290.521C94.7392 290.542 94.6953 290.563 94.6539 290.581C92.2651 288.04 90.0107 285.382 87.9476 282.614C87.9915 282.507 87.9941 282.483 88.0096 282.468C88.0975 282.363 88.188 282.261 88.2785 282.162C90.6699 279.559 92.3994 276.564 93.4594 273.185C93.7101 272.388 93.8808 271.545 93.9454 270.709C94.1962 267.39 93.2448 264.351 91.7402 261.449C91.6988 261.371 91.6704 261.282 91.6238 261.162C88.9739 263.481 86.7893 265.975 85.3985 269.103C84.6824 270.711 84.2817 272.396 84.46 274.161C84.5893 275.451 84.8452 276.728 85.0443 278.012C85.065 278.151 85.0831 278.289 85.1115 278.501C83.9559 277.177 79.9384 270.27 79.5713 268.998C79.685 268.91 79.8065 268.81 79.9332 268.716C82.821 266.562 85.0805 263.859 86.7196 260.642C87.0893 259.919 87.3608 259.131 87.5676 258.342C88.126 256.203 88.0277 254.044 87.6348 251.89C87.4564 250.905 87.247 249.923 86.8204 248.894C85.9802 249.464 85.1607 249.981 84.3799 250.555C82.4668 251.963 80.7657 253.592 79.4575 255.603C78.6406 256.856 78.0511 258.209 77.8288 259.7C77.5936 261.267 77.622 262.841 77.728 264.416C77.7435 264.63 77.759 264.844 77.7745 265.058C76.0838 261.564 74.7678 257.948 73.7363 254.224C73.8966 254.133 73.9923 254.073 74.0931 254.023C76.5233 252.838 78.6457 251.232 80.5123 249.271C82.048 247.657 83.3328 245.894 83.9248 243.68C84.5065 241.507 84.5763 239.311 84.3954 237.092C84.3695 236.763 84.292 236.436 84.2403 236.126C84.1291 236.126 84.08 236.112 84.0412 236.128C81.0009 237.277 78.2191 238.852 75.9569 241.249C74.716 242.562 73.824 244.087 73.4414 245.873C73.1519 247.231 72.9347 248.605 72.6943 249.908C72.141 248.913 70.5304 240.379 70.5899 238.593C70.7476 238.541 70.913 238.476 71.0837 238.426C74.2868 237.496 77.1151 235.877 79.6226 233.673C80.6955 232.731 81.5434 231.621 82.182 230.339C83.0662 228.563 83.5419 226.67 83.7668 224.706C83.834 224.124 83.8624 223.537 83.909 222.918C83.6737 222.918 83.516 222.892 83.3712 222.92C80.6489 223.479 78.0559 224.38 75.7086 225.921C73.7955 227.177 72.3529 228.835 71.554 231.01C71.1533 232.099 70.8224 233.214 70.4631 234.318C70.4269 234.425 70.4062 234.54 70.3674 234.647C70.339 234.731 70.2976 234.809 70.264 234.888C69.8659 230.66 69.8478 226.456 70.1994 222.27C70.3648 222.239 70.4321 222.223 70.4967 222.215C73.8136 221.891 76.8849 220.829 79.7445 219.108C81.1715 218.249 82.3271 217.118 83.2397 215.726C84.3255 214.073 85.0597 212.266 85.5381 210.347C85.613 210.042 85.6647 209.728 85.7345 209.376C85.507 209.36 85.3312 209.329 85.1554 209.337C84.4548 209.373 83.7542 209.399 83.0588 209.472C81.0707 209.684 79.1395 210.128 77.2962 210.93C75.2642 211.815 73.6148 213.149 72.485 215.087C71.924 216.05 71.4224 217.048 70.8951 218.029C70.7917 218.223 70.6986 218.424 70.6004 218.622C70.9933 214.335 71.725 210.128 72.7824 205.994C72.9323 205.984 72.9995 205.971 73.0642 205.976C76.3423 206.239 79.5041 205.722 82.57 204.54C83.8756 204.033 85.0313 203.297 86.0395 202.32C87.7458 200.659 88.9531 198.667 89.845 196.468C89.8761 196.392 89.8709 196.301 89.8812 196.231C89.814 196.186 89.7804 196.155 89.739 196.142C89.6537 196.113 89.5658 196.084 89.4779 196.071C87.1382 195.721 84.7986 195.651 82.4566 196.056C79.8454 196.505 77.6092 197.635 75.9132 199.735C75.3419 200.443 74.7964 201.171 74.2406 201.889C74.1062 202.064 73.9769 202.244 73.7907 202.5C74.1087 200.453 77.4411 191.34 78.1805 190.447C80.5977 191.118 83.0615 191.342 85.5613 191.105C87.3451 190.935 89.1057 190.664 90.7085 189.768C93.1077 188.428 94.8889 186.46 96.3186 184.133C96.3393 184.099 96.3315 184.047 96.3367 184.005C96.3264 183.984 96.3212 183.955 96.3057 183.947C96.2281 183.903 96.148 183.859 96.0653 183.827C93.829 183.041 91.5358 182.592 89.1597 182.569C86.4167 182.543 84.0046 183.391 81.9544 185.243C81.246 185.882 80.5635 186.548 79.8681 187.201C79.7491 187.313 79.625 187.415 79.501 187.522C81.2951 183.488 83.4228 179.67 85.8478 176.03C85.99 176.091 86.0546 176.114 86.1141 176.143C88.689 177.42 91.4242 178.049 94.2784 178.19C96.0855 178.281 97.8409 178.072 99.5058 177.302C101.533 176.365 103.242 175.002 104.733 173.346C104.8 173.27 104.839 173.169 104.912 173.048C102.856 171.863 100.729 171.017 98.451 170.539C95.6098 169.941 92.9676 170.403 90.5296 171.986C89.5239 172.638 88.5492 173.346 87.5591 174.025C87.4479 174.101 87.3212 174.156 87.2049 174.221C89.8315 170.312 92.7891 166.729 96.1422 163.478C96.2637 163.559 96.3413 163.604 96.4137 163.656C98.7095 165.356 101.269 166.46 104.043 167.066C105.351 167.351 106.669 167.526 108.011 167.327C110.514 166.957 112.69 165.842 114.697 164.34C114.836 164.236 114.958 164.11 115.108 163.977C115.017 163.878 114.968 163.805 114.901 163.75C113.027 162.212 110.987 160.966 108.691 160.175C106.499 159.421 104.296 159.342 102.117 160.186C100.811 160.69 99.5446 161.298 98.2597 161.859C98.1175 161.922 97.9701 161.974 97.8279 162.032C101.15 158.755 104.694 155.801 108.528 153.067C108.632 153.219 108.686 153.326 108.764 153.407C110.827 155.564 113.285 157.102 116.054 158.152C117.251 158.606 118.477 158.891 119.762 158.859C122.161 158.799 124.382 158.086 126.486 156.956C126.54 156.927 126.576 156.862 126.618 156.815C126.6 156.762 126.595 156.713 126.566 156.681C124.738 154.522 122.636 152.712 120.038 151.556C118.422 150.835 116.742 150.657 114.997 150.905C113.492 151.119 112.029 151.501 110.581 151.947C110.455 151.986 110.323 151.999 110.191 152.023C113.937 149.336 117.871 147.025 121.938 145.043C122.029 145.085 122.057 145.09 122.07 145.106C122.14 145.195 122.212 145.281 122.274 145.378C124.056 148.075 126.393 150.156 129.221 151.668C129.854 152.008 130.54 152.274 131.232 152.462C133.058 152.958 134.906 152.875 136.742 152.519C137.509 152.371 138.264 152.146 139.032 151.955C138.996 151.796 138.996 151.723 138.965 151.668C137.53 149.253 135.793 147.111 133.422 145.566C132.484 144.955 131.47 144.519 130.361 144.323C128.626 144.017 126.892 144.124 125.157 144.312C124.508 144.383 123.859 144.474 123.21 144.555C125.752 143.242 128.36 142.158 131.021 141.2C131.289 141.103 131.491 141.176 131.726 141.265C132.507 141.56 133.283 141.889 134.087 142.108C135.64 142.531 137.21 142.615 138.763 142.082C141.119 141.275 143.166 139.978 144.891 138.165C145.071 137.975 145.229 137.761 145.436 137.513C145.234 137.424 145.118 137.356 144.994 137.325C143.663 136.972 142.339 136.586 140.997 136.288C138.567 135.747 136.367 136.356 134.433 137.883C133.495 138.625 132.652 139.494 131.788 140.33C131.538 140.573 131.292 140.758 130.956 140.873C129.353 141.424 127.76 142.009 126.163 142.581C126 142.638 125.832 142.68 125.666 142.73C125.801 142.513 125.977 142.377 126.145 142.231C126.918 141.565 127.711 140.918 128.461 140.226C130.1 138.709 131.111 136.847 131.455 134.611C131.837 132.133 131.615 129.697 131.075 127.272C131.057 127.188 130.992 127.115 130.925 127C129.019 127.935 127.321 129.113 125.925 130.716C125.017 131.76 124.361 132.943 123.957 134.275C123.109 137.092 122.872 139.957 123.265 142.874C123.301 143.143 123.35 143.406 123.399 143.72C119.446 145.44 115.679 147.459 112.021 149.689C111.993 149.705 111.941 149.681 111.838 149.668C111.993 149.48 112.133 149.316 112.264 149.148C112.963 148.25 113.686 147.375 114.348 146.448C115.643 144.631 116.078 142.568 115.969 140.356C115.858 138.069 115.279 135.901 114.428 133.794C114.364 133.632 114.271 133.481 114.172 133.288C114.022 133.384 113.909 133.447 113.803 133.525C112.448 134.538 111.259 135.716 110.276 137.103C109.397 138.343 108.736 139.69 108.495 141.205C108.102 143.662 108.146 146.119 108.679 148.556C108.883 149.485 109.162 150.399 109.418 151.363C108.924 151.702 108.42 152.044 107.921 152.391C107.42 152.741 106.918 153.094 106.422 153.452C105.925 153.809 105.432 154.172 104.94 154.541C104.467 154.893 103.999 155.251 103.534 155.614C103.051 155.99 102.57 156.371 102.094 156.755C101.618 157.139 101.153 157.541 100.672 157.919C100.215 158.277 99.8268 158.737 99.1752 159.066C99.3123 158.818 99.3821 158.703 99.4415 158.583C99.9793 157.53 100.558 156.494 101.044 155.418C101.838 153.658 101.949 151.809 101.6 149.921C101.13 147.367 100.078 145.059 98.7022 142.887C98.6324 142.777 98.5419 142.683 98.4436 142.558C98.3428 142.636 98.2653 142.68 98.2058 142.743C96.7865 144.242 95.6257 145.916 94.8527 147.848C94.3718 149.047 94.0771 150.292 94.1107 151.582C94.196 154.849 94.9457 157.951 96.4944 160.837C96.5797 160.993 96.6572 161.153 96.7581 161.354C93.7514 164.03 91.0239 166.957 88.4719 170.057C88.6684 169.242 88.9192 168.467 89.1389 167.681C89.6818 165.741 89.6896 163.808 89.051 161.884C88.1333 159.124 86.5459 156.789 84.5837 154.692C84.532 154.635 84.4415 154.614 84.3768 154.578C83.1902 156.142 82.0966 158.633 81.7218 160.565C81.471 161.855 81.396 163.145 81.6571 164.443C82.3035 167.649 83.5832 170.564 85.5687 173.156C85.6747 173.295 85.7626 173.452 85.866 173.611C83.4152 177.034 81.2487 180.598 79.2424 184.265C79.2941 183.563 79.4104 182.889 79.488 182.213C79.6354 180.941 79.7077 179.664 79.4777 178.392C79.2088 176.907 78.5728 175.575 77.7533 174.332C76.4606 172.373 74.8267 170.739 72.986 169.313C72.849 169.206 72.6965 169.123 72.5052 169.002C72.3888 169.248 72.288 169.446 72.2001 169.653C71.6649 170.919 71.2823 172.23 71.0625 173.585C70.729 175.645 70.7756 177.682 71.5667 179.648C72.7947 182.698 74.5863 185.357 77.019 187.561C77.1664 187.694 77.2983 187.84 77.4275 187.971C76.8381 189.313 76.2538 190.6 75.7108 191.9C75.1757 193.183 74.6742 194.48 74.1675 195.776C73.6633 197.063 73.2729 198.397 72.6964 199.666C72.6266 198.849 72.6447 198.05 72.624 197.253C72.5413 194.285 71.4348 191.765 69.3485 189.668C67.7145 188.025 65.8532 186.709 63.816 185.638C63.6634 185.558 63.498 185.505 63.3067 185.427C63.2446 185.618 63.1697 185.764 63.149 185.915C62.9783 187.135 62.7276 188.349 62.6707 189.574C62.5466 192.237 63.105 194.731 64.651 196.968C66.409 199.512 68.5264 201.661 71.1452 203.293C71.2952 203.387 71.4322 203.496 71.6106 203.622C70.5196 207.468 69.6898 211.351 68.9866 215.281C68.8004 214.74 68.6789 214.2 68.5677 213.657C68.0145 210.97 66.7684 208.711 64.5942 207.003C62.4406 205.311 60.0234 204.165 57.4332 203.355C57.3298 203.324 57.216 203.334 57.1048 203.324C57.0816 203.413 57.0557 203.478 57.0505 203.546C56.9368 205.261 57.0014 206.972 57.3582 208.656C57.8003 210.745 58.6172 212.646 60.0831 214.234C62.3039 216.641 64.8839 218.521 67.9059 219.767C68.0714 219.835 68.2317 219.913 68.4514 220.01C68.0585 223.749 67.9111 227.493 67.8697 231.262C67.6034 230.807 67.3966 230.34 67.2027 229.867C66.0833 227.115 64.1495 225.17 61.4996 223.908C59.3538 222.887 57.0969 222.268 54.7549 221.939C54.5222 221.905 54.2844 221.908 54 221.892C54.1887 224.219 54.7471 226.347 55.727 228.353C56.4328 229.802 57.3687 231.084 58.6328 232.097C61.2207 234.171 64.1162 235.615 67.3246 236.411C67.6064 236.481 67.8908 236.547 68.2269 236.625C68.5061 240.312 69.0361 243.944 69.7264 247.561C69.2533 246.934 68.8318 246.289 68.4027 245.652C66.9782 243.526 65.0263 242.135 62.6194 241.351C60.0238 240.508 57.3636 240.252 54.6569 240.377C54.4656 240.385 54.2769 240.435 54.083 240.466C54.6259 243.153 56.4279 246.469 58.3978 248.305C59.0079 248.874 59.6853 249.397 60.4066 249.807C62.9531 251.256 65.6909 252.162 68.5994 252.509C69.3827 252.603 70.1713 252.65 71.014 252.726C71.8491 256.149 72.9013 259.521 74.1086 262.733C73.6278 262.302 73.0771 261.86 72.5833 261.359C70.921 259.67 68.9406 258.625 66.6139 258.215C64.3854 257.821 62.1595 257.865 59.9307 258.186C59.0621 258.312 58.2038 258.5 57.3584 258.654C57.3532 258.779 57.3351 258.829 57.3506 258.868C57.3972 258.996 57.4489 259.124 57.5083 259.247C58.3615 260.949 59.406 262.516 60.7089 263.897C62.0713 265.339 63.6329 266.482 65.5278 267.104C68.1518 267.966 70.8431 268.386 73.6041 268.274C74.5038 268.237 75.4009 268.159 76.236 268.101C77.9345 271.277 79.615 274.413 81.2928 277.546C81.2798 277.551 81.254 277.572 81.2462 277.567C80.7525 277.209 80.2509 276.859 79.7649 276.491C77.4407 274.726 74.8166 273.995 71.9341 274.172C69.1756 274.345 66.5438 275.05 64.01 276.144C63.8781 276.201 63.7644 276.303 63.6118 276.402C64.9122 278.249 66.4117 279.813 68.1904 281.105C70.1707 282.547 72.3811 283.294 74.8114 283.458C78.0042 283.672 81.1298 283.38 84.1776 282.361C84.281 282.327 84.3896 282.317 84.4077 282.314C86.7189 285.236 88.9836 288.098 91.3106 291.041C91.0882 290.926 90.9538 290.851 90.8142 290.785C89.8964 290.344 88.9916 289.877 88.0583 289.475C86.0857 288.623 84.033 288.506 81.9389 288.877C78.8159 289.43 76.0005 290.741 73.3556 292.465C73.247 292.535 73.1514 292.626 73.0195 292.733C73.1772 292.908 73.3013 293.068 73.4461 293.203C75.0128 294.676 76.7398 295.914 78.6942 296.807C80.4496 297.609 82.28 298.058 84.2164 297.961C87.8771 297.781 91.3596 296.904 94.6065 295.157C94.7616 295.073 94.9271 295.013 95.0072 294.977C97.7476 297.46 100.434 299.896 103.189 302.395C102.76 302.254 102.422 302.139 102.08 302.027C100.785 301.609 99.4744 301.267 98.1145 301.155C96.3436 301.011 94.6477 301.374 93.0086 302.017C90.0976 303.153 87.5951 304.931 85.3281 307.067C85.2479 307.143 85.1833 307.234 85.0877 307.346C85.2531 307.477 85.385 307.594 85.5297 307.691C87.2179 308.822 89.0224 309.704 90.9665 310.279C92.9003 310.848 94.8677 311.083 96.8636 310.673C100.667 309.895 104.129 308.344 107.202 305.934C107.326 305.837 107.455 305.751 107.538 305.693C110.416 307.553 113.257 309.391 116.181 311.281C115.439 311.206 114.79 311.135 114.141 311.075C112.921 310.963 111.703 310.981 110.496 311.237C108.834 311.59 107.334 312.318 105.93 313.258C103.472 314.906 101.44 317.003 99.6844 319.384C99.6353 319.449 99.612 319.536 99.5836 319.596C99.6404 319.661 99.6637 319.705 99.6999 319.726C99.7981 319.781 99.9016 319.828 100.005 319.875C101.923 320.719 103.917 321.306 106 321.518C108.162 321.739 110.284 321.58 112.326 320.724C115.323 319.465 118.017 317.739 120.359 315.465C120.814 315.023 121.254 314.566 121.742 314.075C124.71 315.517 127.779 316.723 130.889 317.817C130.904 317.823 130.917 317.851 130.922 317.872C130.927 317.893 130.925 317.917 130.925 318C130.584 318 130.248 317.987 129.909 318.003C126.9 318.126 124.201 319.066 121.905 321.095C119.379 323.325 117.486 326.027 115.99 329.033C115.953 329.106 115.956 329.2 115.938 329.299C116.049 329.336 116.132 329.37 116.217 329.39C118.446 329.981 120.713 330.19 123.006 330.012C125.397 329.827 127.587 329.069 129.578 327.685C132.561 325.612 135.077 323.095 137.01 319.998C137.106 319.846 137.212 319.7 137.318 319.543C137.54 319.577 137.742 319.598 137.936 319.64C139.417 319.956 140.904 320.243 142.375 320.601C149.781 322.392 156.829 325.108 163.388 329.054C167.131 331.305 170.632 333.882 173.708 337.016C174.006 337.318 174.254 337.671 174.525 338H174.797C175.539 337.305 176.278 336.611 177.023 335.919C177.333 335.629 177.651 335.344 178 335.026C177.791 334.793 177.63 334.605 177.46 334.43C174.887 331.824 171.943 329.67 168.822 327.761L168.823 327.759Z" fill="#E18E1C"/>
<path d="M396.356 236.458C399.679 235.708 402.655 234.232 405.327 232.112C406.842 230.911 407.882 229.349 408.624 227.578C409.286 225.996 409.78 224.363 409.889 222.632C409.897 222.527 409.961 222.426 410 222.324V221.914C409.219 222.005 408.428 222.047 407.657 222.198C405.381 222.648 403.204 223.384 401.207 224.609C399.544 225.627 398.218 226.964 397.349 228.738C396.989 229.474 396.671 230.232 396.33 230.976C396.273 231.099 396.193 231.211 396.151 231.282C395.994 227.51 395.836 223.734 395.676 219.929C395.758 219.895 395.862 219.851 395.965 219.809C398.513 218.772 400.773 217.286 402.772 215.39C404.034 214.194 405.156 212.896 405.839 211.256C406.868 208.778 407.134 206.19 406.971 203.539C406.966 203.458 406.915 203.38 406.878 203.286C406.759 203.304 406.671 203.306 406.589 203.33C404.261 204.051 402.068 205.056 400.074 206.479C397.768 208.127 396.198 210.279 395.582 213.097C395.489 213.52 395.386 213.941 395.29 214.364C395.215 214.69 395.145 215.019 395.073 215.346C394.344 211.363 393.477 207.441 392.401 203.562C392.567 203.453 392.678 203.377 392.792 203.306C395.662 201.533 397.956 199.177 399.749 196.312C400.271 195.477 400.661 194.581 400.915 193.625C401.484 191.465 401.453 189.287 401.099 187.104C401.005 186.535 400.951 185.95 400.695 185.427C400.594 185.443 400.545 185.438 400.506 185.459C397.889 186.78 395.538 188.452 393.679 190.763C392.485 192.252 391.701 193.928 391.53 195.853C391.432 196.942 391.401 198.039 391.336 199.13C391.329 199.269 391.295 199.407 391.272 199.543C389.865 195.584 388.331 191.719 386.544 187.919C386.707 187.775 386.844 187.657 386.976 187.537C389.41 185.331 391.207 182.68 392.435 179.627C392.955 178.337 393.178 176.989 393.139 175.608C393.079 173.437 392.567 171.364 391.701 169.379C391.642 169.243 391.548 169.126 391.458 168.977C391.323 169.066 391.228 169.123 391.14 169.191C389.487 170.45 388.008 171.886 386.767 173.563C385.908 174.722 385.21 175.971 384.77 177.355C384.225 179.076 384.323 180.826 384.563 182.578C384.633 183.082 384.706 183.583 384.778 184.085C384.734 184.101 384.688 184.116 384.644 184.132C382.704 180.45 380.519 176.919 378.121 173.547C378.217 173.414 378.266 173.336 378.323 173.265C380.146 170.938 381.377 168.319 382.117 165.454C382.492 163.996 382.603 162.534 382.365 161.045C382.006 158.797 381.103 156.77 379.88 154.877C379.797 154.751 379.681 154.647 379.554 154.5C377.452 156.78 375.722 159.235 374.85 162.22C374.47 163.529 374.289 164.863 374.581 166.211C374.822 167.324 375.145 168.418 375.429 169.52C375.463 169.65 375.484 169.784 375.509 169.917C372.918 166.851 370.203 163.957 367.249 161.327C368.909 157.948 369.367 156.548 369.768 153.356C369.954 151.878 369.959 150.392 369.533 148.94C368.811 146.498 367.461 144.446 365.713 142.636C365.672 142.594 365.599 142.586 365.524 142.555C365.449 142.651 365.374 142.738 365.315 142.832C363.97 144.942 362.938 147.185 362.442 149.661C362.041 151.662 362.139 153.62 362.993 155.493C363.455 156.506 363.998 157.483 364.511 158.475C364.599 158.645 364.694 158.809 364.787 158.977C361.475 156.261 358.092 153.683 354.531 151.303C355.115 149.692 355.503 148.078 355.653 146.412C355.829 144.448 355.865 142.474 355.361 140.557C354.531 137.399 352.47 135.143 349.892 133.304C349.876 133.291 349.848 133.296 349.801 133.288C349.734 133.422 349.654 133.555 349.594 133.701C348.736 135.756 348.18 137.89 348.027 140.12C347.867 142.45 348.34 144.625 349.729 146.532C350.437 147.506 351.218 148.425 351.963 149.373C352.046 149.478 352.116 149.593 352.191 149.702C348.428 147.456 344.588 145.435 340.659 143.703C340.644 143.56 340.633 143.515 340.636 143.471C340.646 143.359 340.657 143.244 340.675 143.132C341.078 140.784 340.962 138.449 340.52 136.12C340.046 133.628 339.056 131.432 337.147 129.711C336.061 128.731 334.879 127.896 333.586 127.227C333.41 127.136 333.222 127.073 333.051 127C332.997 127.078 332.96 127.11 332.95 127.151C332.911 127.282 332.875 127.415 332.847 127.548C332.415 129.523 332.252 131.523 332.41 133.539C332.611 136.091 333.514 138.332 335.43 140.076C336.252 140.826 337.106 141.539 337.944 142.27C338.081 142.387 338.213 142.51 338.347 142.63C338.102 142.638 337.915 142.568 337.727 142.5C336.214 141.959 334.706 141.411 333.185 140.891C332.764 140.747 332.428 140.546 332.13 140.204C331.021 138.924 329.756 137.828 328.267 137.01C327.025 136.329 325.714 135.997 324.292 136.096C322.378 136.232 320.557 136.744 318.76 137.384C318.708 137.402 318.675 137.478 318.62 137.54C318.706 137.658 318.773 137.775 318.864 137.875C320.705 139.912 322.939 141.335 325.544 142.147C326.48 142.44 327.452 142.474 328.432 142.359C329.749 142.202 331.003 141.839 332.195 141.27C332.531 141.108 332.816 141.09 333.157 141.231C335.497 142.199 337.843 143.158 340.186 144.122C340.364 144.195 340.532 144.297 340.706 144.385C340.509 144.466 340.338 144.482 340.173 144.464C339.138 144.357 338.107 144.229 337.072 144.132C333.777 143.826 330.915 144.772 328.531 147.138C327.199 148.459 326.048 149.917 325.086 151.528C325.032 151.622 324.998 151.729 324.946 151.849C325.094 151.915 325.215 151.98 325.342 152.019C326.883 152.513 328.463 152.774 330.08 152.774C331.802 152.774 333.442 152.424 334.962 151.562C337.693 150.016 339.979 147.989 341.725 145.354C341.8 145.242 341.883 145.137 341.991 144.986C346.137 147 350.083 149.319 353.843 151.972C353.608 151.969 353.396 151.914 353.181 151.857C352.286 151.617 351.391 151.371 350.497 151.139C347.218 150.285 344.233 150.94 341.492 152.907C340.082 153.917 338.805 155.067 337.662 156.375C337.55 156.503 337.465 156.654 337.331 156.842C337.643 157.004 337.894 157.161 338.161 157.268C339.019 157.616 339.867 158.002 340.752 158.271C342.73 158.869 344.745 159.104 346.767 158.509C349.956 157.571 352.731 155.913 355.086 153.547C355.229 153.403 355.324 153.215 355.42 153.079C357.429 154.218 364.826 160.347 366.333 162.118C366.038 161.977 365.847 161.878 365.648 161.792C364.424 161.256 363.219 160.679 361.975 160.199C360.134 159.488 358.236 159.36 356.312 159.867C353.568 160.59 351.189 162.003 349.019 163.81C348.975 163.847 348.962 163.925 348.918 164.019C350.583 165.359 352.401 166.383 354.447 166.984C355.678 167.344 356.935 167.511 358.205 167.347C361.582 166.91 364.691 165.754 367.465 163.729C367.589 163.638 367.726 163.568 367.851 163.492C370.085 165.354 376.411 172.943 376.866 174.325C376.659 174.168 376.478 174.032 376.299 173.896C374.942 172.865 373.537 171.912 371.996 171.172C370.356 170.386 368.642 170.143 366.845 170.339C364.238 170.621 361.843 171.53 359.552 172.768C359.399 172.852 359.259 172.961 359.089 173.076C359.174 173.196 359.231 173.293 359.306 173.374C360.676 174.889 362.236 176.158 364.059 177.075C365.075 177.587 366.141 177.973 367.281 178.083C370.827 178.422 374.215 177.798 377.458 176.33C377.68 176.229 377.905 176.127 378.12 176.03C379.519 177.673 384.373 186.385 384.564 187.696C384.37 187.458 384.272 187.302 384.14 187.181C383.201 186.325 382.286 185.439 381.306 184.632C379.612 183.241 377.626 182.642 375.461 182.567C372.919 182.475 370.467 182.945 368.07 183.758C367.928 183.805 367.799 183.888 367.633 183.967C367.716 184.126 367.768 184.249 367.837 184.361C368.836 185.928 370.017 187.333 371.458 188.503C372.596 189.427 373.837 190.172 375.265 190.54C377.789 191.19 380.352 191.347 382.935 190.997C383.936 190.861 384.926 190.644 385.925 190.464C386.944 192.17 390.197 201.318 390.111 202.313C389.982 202.138 389.881 201.992 389.77 201.854C389.152 201.067 388.555 200.263 387.908 199.501C386.481 197.813 384.67 196.761 382.534 196.249C380.124 195.672 377.698 195.648 375.257 195.954C374.869 196.004 374.484 196.09 374.049 196.168C375.099 198.772 376.449 201.052 378.544 202.788C379.253 203.376 380.054 203.896 380.892 204.267C384.029 205.659 387.332 206.202 390.753 205.982C390.906 205.972 391.058 205.982 391.25 205.982C392.274 210.104 393.037 214.245 393.417 218.463C393.254 218.283 393.163 218.082 393.06 217.889C392.566 216.967 392.093 216.029 391.568 215.126C390.391 213.099 388.666 211.715 386.53 210.83C384.05 209.801 381.454 209.37 378.788 209.317C378.632 209.315 378.477 209.344 378.299 209.359C378.314 209.495 378.314 209.607 378.338 209.714C378.77 211.741 379.488 213.653 380.582 215.41C381.397 216.721 382.398 217.863 383.691 218.711C386.148 220.323 388.814 221.409 391.7 221.934C392.404 222.062 393.115 222.156 393.847 222.268C394.147 226.496 394.152 230.678 393.805 234.869C393.702 234.715 393.645 234.551 393.591 234.384C393.288 233.428 393.004 232.467 392.683 231.516C391.767 228.79 389.983 226.81 387.526 225.405C385.543 224.269 383.422 223.509 381.201 223.015C380.877 222.942 380.546 222.901 380.156 222.833C380.156 223.125 380.145 223.35 380.158 223.572C380.236 225.175 380.523 226.745 381.007 228.273C381.741 230.592 382.998 232.545 384.896 234.089C387.213 235.974 389.753 237.416 392.598 238.306C392.874 238.392 393.154 238.473 393.5 238.575C393.081 242.443 392.365 246.227 391.341 249.962C391.253 249.74 391.211 249.518 391.18 249.296C391.08 248.572 390.992 247.849 390.878 247.128C390.48 244.584 389.383 242.412 387.506 240.649C385.302 238.578 382.734 237.131 379.923 236.094C379.892 236.081 379.843 236.112 379.784 236.128C379.765 236.206 379.742 236.293 379.724 236.381C379.698 236.515 379.667 236.65 379.652 236.786C379.427 238.797 379.468 240.798 379.887 242.782C380.27 244.597 380.991 246.248 382.16 247.697C384.26 250.304 386.756 252.406 389.737 253.91C389.916 253.999 390.084 254.109 390.293 254.229C389.243 257.958 387.945 261.56 386.321 265.047C386.282 264.603 386.303 264.174 386.334 263.746C386.445 262.236 386.401 260.73 386.114 259.244C385.755 257.384 384.834 255.791 383.665 254.339C381.932 252.187 379.814 250.492 377.464 249.077C377.378 249.024 377.272 249.003 377.148 248.959C377.058 249.223 376.98 249.434 376.913 249.651C376.515 250.965 376.253 252.31 376.14 253.676C375.907 256.423 376.31 259.035 377.727 261.456C379.372 264.263 381.423 266.695 384.017 268.646C384.177 268.766 384.332 268.896 384.518 269.045C382.871 272.331 381.03 275.47 378.943 278.468C379.02 277.82 379.137 277.196 379.276 276.577C380.039 273.219 379.455 270.103 377.655 267.191C376.326 265.039 374.691 263.164 372.803 261.503C372.692 261.406 372.56 261.333 372.41 261.231C372.284 261.456 372.175 261.628 372.085 261.809C371.265 263.423 370.662 265.115 370.303 266.891C369.83 269.244 369.93 271.553 370.763 273.833C371.891 276.914 373.497 279.688 375.705 282.103C375.84 282.25 375.961 282.409 376.101 282.576C373.959 285.415 371.699 288.102 369.24 290.625C369.478 289.836 369.762 289.074 370.039 288.311C370.937 285.846 370.978 283.354 370.218 280.85C369.289 277.792 367.694 275.104 365.684 272.655C365.648 272.61 365.578 272.595 365.472 272.54C365.418 272.618 365.369 272.696 365.314 272.767C363.915 274.585 362.803 276.562 362.102 278.758C361.611 280.291 361.319 281.863 361.487 283.477C361.883 287.261 363.093 290.768 365.11 293.989C365.216 294.156 365.307 294.334 365.42 294.537C362.901 296.917 360.3 299.139 357.535 301.171C357.926 300.382 358.355 299.638 358.774 298.883C360.171 296.363 360.476 293.676 360.003 290.858C359.535 288.081 358.547 285.499 357.22 283.033C357.124 282.856 357.011 282.689 356.889 282.493C356.755 282.595 356.638 282.665 356.54 282.754C354.75 284.399 353.253 286.272 352.159 288.46C351.448 289.881 350.956 291.375 350.863 292.968C350.688 295.935 351.006 298.852 351.88 301.696C352.172 302.649 352.529 303.584 352.875 304.584C349.935 306.561 346.896 308.379 343.7 309.949C343.806 309.748 343.948 309.586 344.086 309.418C344.815 308.517 345.58 307.643 346.266 306.71C347.541 304.971 348.117 302.97 348.275 300.834C348.521 297.499 347.91 294.289 346.863 291.145C346.817 291.004 346.742 290.871 346.685 290.746C346.584 290.767 346.535 290.767 346.498 290.785C346.379 290.85 346.263 290.921 346.149 290.994C344.461 292.083 342.945 293.376 341.634 294.906C340.315 296.444 339.268 298.147 338.792 300.142C337.926 303.767 337.853 307.418 338.585 311.077C338.665 311.474 338.743 311.873 338.831 312.317C335.696 313.667 332.544 314.819 329.27 315.618C329.955 314.965 330.667 314.37 331.367 313.764C333.592 311.839 334.83 309.361 335.381 306.491C335.862 303.978 335.878 301.453 335.614 298.92C335.549 298.298 335.433 297.682 335.332 297.016C335.073 297.11 334.903 297.165 334.74 297.233C332.808 298.047 331.016 299.1 329.399 300.445C327.455 302.064 326.025 304.036 325.182 306.457C324.088 309.593 323.524 312.803 323.596 316.13C323.601 316.376 323.596 316.619 323.596 316.862C323.358 316.924 323.185 316.974 323.009 317.013C321.204 317.428 319.384 317.791 317.594 318.269C309.613 320.392 302.033 323.495 294.987 327.862C291.992 329.719 289.16 331.798 286.654 334.302C286.432 334.524 286.23 334.764 286 335.018C286.204 335.211 286.367 335.365 286.533 335.516C287.435 336.344 288.34 337.172 289.243 338H289.38C291.85 335.232 294.718 332.939 297.767 330.873C304.017 326.64 310.827 323.634 318.05 321.555C319.787 321.056 321.546 320.63 323.305 320.207C324.401 319.943 325.516 319.75 326.659 319.518C326.78 319.693 326.902 319.852 327.008 320.019C328.953 323.111 331.469 325.629 334.453 327.7C336.468 329.097 338.687 329.841 341.099 330.021C343.303 330.186 345.48 329.972 347.627 329.447C347.777 329.41 347.921 329.35 348.113 329.285C348.022 329.073 347.955 328.883 347.865 328.705C346.566 326.174 344.984 323.85 342.941 321.866C341.27 320.244 339.403 318.92 337.094 318.437C335.772 318.16 334.414 318.05 333.059 317.862C334.575 317.287 336.129 316.729 337.657 316.11C339.206 315.48 340.732 314.793 342.317 314.109C342.46 314.253 342.623 314.407 342.773 314.569C345.209 317.186 348.092 319.147 351.345 320.586C353.502 321.542 355.749 321.761 358.051 321.518C360.063 321.304 361.997 320.753 363.854 319.941C364.038 319.86 364.216 319.768 364.449 319.656C364.366 319.499 364.315 319.356 364.227 319.238C362.566 317.018 360.663 315.047 358.387 313.461C356.885 312.417 355.276 311.602 353.476 311.226C352.292 310.978 351.097 310.959 349.897 311.069C349.233 311.129 348.57 311.202 347.831 311.278C350.753 309.39 353.6 307.554 356.484 305.692C356.569 305.755 356.696 305.843 356.82 305.94C359.895 308.348 363.358 309.899 367.162 310.677C369.016 311.056 370.852 310.873 372.667 310.385C374.762 309.821 376.691 308.886 378.499 307.69C378.613 307.614 378.721 307.533 378.827 307.447C378.858 307.423 378.869 307.374 378.895 307.327C378.861 307.275 378.835 307.209 378.789 307.165C376.43 304.921 373.816 303.078 370.756 301.921C368.299 300.991 365.819 300.886 363.303 301.628C362.504 301.863 361.707 302.106 360.872 302.357C363.595 299.889 366.285 297.452 369.021 294.971C369.114 295.016 369.277 295.081 369.432 295.164C372.706 296.914 376.207 297.794 379.896 297.959C381.786 298.042 383.576 297.601 385.288 296.823C387.31 295.906 389.089 294.626 390.693 293.091C390.804 292.984 390.897 292.856 391.013 292.72C390.902 292.634 390.819 292.555 390.726 292.495C388.083 290.769 385.272 289.453 382.148 288.884C380.004 288.494 377.912 288.622 375.895 289.489C375.044 289.855 374.217 290.281 373.381 290.683C373.182 290.777 372.988 290.884 372.719 291.022C375.047 288.082 377.315 285.212 379.593 282.331C380.615 282.584 381.678 282.895 382.761 283.107C385.585 283.655 388.427 283.689 391.259 283.169C393.051 282.84 394.629 282.002 396.08 280.916C397.763 279.654 399.196 278.145 400.422 276.366C400.235 276.262 400.088 276.163 399.93 276.095C397.474 275.055 394.929 274.363 392.265 274.178C389.441 273.979 386.829 274.598 384.515 276.306C383.904 276.758 383.294 277.207 382.648 277.685C384.367 274.478 386.061 271.321 387.802 268.074C387.983 268.09 388.272 268.106 388.559 268.137C392.03 268.529 395.417 268.15 398.72 267.012C400.381 266.44 401.775 265.442 403.008 264.204C404.482 262.726 405.641 261.018 406.561 259.14C406.6 259.059 406.636 258.973 406.665 258.887C406.678 258.845 406.673 258.798 406.68 258.691C406.282 258.594 405.873 258.479 405.46 258.399C403.567 258.028 401.656 257.879 399.726 257.941C396.214 258.054 393.196 259.26 390.835 261.961C390.569 262.266 390.287 262.559 389.958 262.914C391.027 259.469 392.066 256.111 393.124 252.705C393.84 252.642 394.626 252.595 395.407 252.501C398.317 252.154 401.045 251.237 403.611 249.814C405.129 248.973 406.316 247.761 407.304 246.343C408.405 244.76 409.21 243.032 409.768 241.185C409.838 240.955 409.859 240.713 409.918 240.389C409.215 240.365 408.586 240.321 407.96 240.331C405.827 240.36 403.724 240.613 401.674 241.248C399.142 242.029 397.07 243.444 395.586 245.685C395.175 246.304 394.764 246.923 394.303 247.524C394.994 243.93 395.503 240.323 395.801 236.649C395.979 236.578 396.165 236.502 396.357 236.458L396.356 236.458Z" fill="#E18E1C"/>
<g filter="url(#filter0_d_104_18)">
<path d="M164.766 271V190.356H174.531V230.363H175.476L211.703 190.356H224.461L190.597 226.74L224.461 271H212.648L184.612 233.513L174.531 244.854V271H164.766ZM288.439 215.557C287.573 212.906 286.431 210.53 285.014 208.43C283.622 206.303 281.955 204.492 280.013 202.996C278.096 201.499 275.917 200.357 273.476 199.57C271.035 198.782 268.357 198.388 265.443 198.388C260.665 198.388 256.321 199.622 252.409 202.09C248.498 204.558 245.387 208.193 243.077 212.997C240.767 217.801 239.612 223.695 239.612 230.678C239.612 237.661 240.78 243.554 243.116 248.358C245.453 253.162 248.616 256.798 252.606 259.266C256.596 261.733 261.085 262.967 266.073 262.967C270.693 262.967 274.762 261.983 278.28 260.014C281.824 258.019 284.58 255.21 286.549 251.587C288.544 247.938 289.542 243.646 289.542 238.711L292.535 239.341H268.278V230.678H298.993V239.341C298.993 245.982 297.575 251.758 294.74 256.667C291.931 261.576 288.046 265.382 283.084 268.086C278.149 270.764 272.479 272.103 266.073 272.103C258.933 272.103 252.659 270.422 247.251 267.062C241.869 263.702 237.669 258.924 234.65 252.729C231.658 246.534 230.161 239.183 230.161 230.678C230.161 224.299 231.014 218.563 232.721 213.47C234.453 208.351 236.895 203.993 240.045 200.397C243.195 196.8 246.923 194.044 251.228 192.128C255.533 190.211 260.272 189.253 265.443 189.253C269.696 189.253 273.66 189.896 277.335 191.182C281.037 192.443 284.331 194.241 287.219 196.577C290.133 198.887 292.561 201.657 294.504 204.886C296.446 208.088 297.785 211.645 298.52 215.557H288.439Z" fill="#E18E1C"/>
</g>
<defs>
<filter id="filter0_d_104_18" x="160.766" y="189.253" width="142.227" height="90.8496" filterUnits="userSpaceOnUse" color-interpolation-filters="sRGB">
<feFlood flood-opacity="0" result="BackgroundImageFix"/>
<feColorMatrix in="SourceAlpha" type="matrix" values="0 0 0 0 0 0 0 0 0 0 0 0 0 0 0 0 0 0 127 0" result="hardAlpha"/>
<feOffset dy="4"/>
<feGaussianBlur stdDeviation="2"/>
<feComposite in2="hardAlpha" operator="out"/>
<feColorMatrix type="matrix" values="0 0 0 0 0 0 0 0 0 0 0 0 0 0 0 0 0 0 0.25 0"/>
<feBlend mode="normal" in2="BackgroundImageFix" result="effect1_dropShadow_104_18"/>
<feBlend mode="normal" in="SourceGraphic" in2="effect1_dropShadow_104_18" result="shape"/>
</filter>
</defs>
</svg>
